<?xml version="1.0" standalone="no"?>
<!DOCTYPE svg PUBLIC "-//W3C//DTD SVG 20010904//EN"
 "http://www.w3.org/TR/2001/REC-SVG-20010904/DTD/svg10.dtd">
<svg version="1.0" xmlns="http://www.w3.org/2000/svg"
 width="146.000000pt" height="146.000000pt" viewBox="0 0 146.000000 146.000000"
 preserveAspectRatio="xMidYMid meet">
<metadata>
Created by potrace 1.10, written by Peter Selinger 2001-2011
</metadata>
<g transform="translate(0.000000,146.000000) scale(0.100000,-0.100000)"
fill="#000000" stroke="none">
<path d="M0 730 l0 -730 730 0 730 0 0 730 0 730 -730 0 -730 0 0 -730z m745
636 c12 -8 40 -68 70 -150 l50 -136 164 0 c181 0 201 -6 201 -61 0 -51 -130
-182 -235 -237 -45 -24 -61 -27 -150 -27 -126 1 -162 17 -304 129 -26 20 15
-46 51 -84 50 -52 75 -70 137 -99 50 -23 68 -26 170 -26 l114 0 38 -82 c42
-92 46 -108 35 -140 -8 -26 -51 -41 -75 -26 -9 5 -32 18 -51 29 -19 10 -37 21
-40 24 -4 5 -166 106 -198 124 -7 5 -66 -26 -145 -77 -155 -99 -170 -107 -193
-107 -26 0 -54 30 -54 56 0 13 29 87 65 164 36 77 65 144 65 148 0 4 -61 52
-135 106 -143 104 -152 117 -119 164 14 20 23 22 123 22 64 0 127 -6 154 -14
26 -8 47 -12 47 -10 0 3 14 -2 30 -11 17 -9 30 -13 30 -10 0 9 183 -89 226
-121 48 -37 51 -37 29 6 -40 78 -181 210 -247 232 -9 3 -9 11 -1 34 6 16 23
61 38 99 36 93 64 114 110 81z m-188 -1008 c6 -7 37 -78 69 -157 41 -100 65
-146 79 -152 12 -5 -16 -8 -75 -8 -53 0 -89 3 -82 7 9 7 10 15 3 35 -10 26
-14 27 -80 27 -62 0 -72 -3 -82 -22 -10 -18 -8 -24 7 -35 15 -11 10 -13 -42
-12 -48 0 -54 2 -34 10 17 7 32 27 49 67 13 31 32 75 42 97 10 22 29 66 43 98
23 53 27 57 59 57 19 0 39 -6 44 -12z m413 2 c77 -11 105 -36 96 -85 -4 -16
-13 -35 -21 -41 -19 -14 -19 -24 -2 -24 25 0 57 -40 57 -71 0 -80 -43 -99
-222 -99 -103 0 -129 3 -120 12 17 17 17 289 0 306 -15 15 114 16 212 2z"/>
<path d="M441 212 c-13 -31 -25 -63 -28 -69 -4 -10 11 -13 57 -13 34 0 60 3
58 8 -1 4 -14 35 -28 70 -14 34 -27 62 -30 62 -3 0 -16 -26 -29 -58z"/>
<path d="M890 290 c0 -56 2 -60 23 -60 33 0 47 18 47 62 0 27 -5 40 -19 48
-42 22 -51 14 -51 -50z"/>
<path d="M890 136 c0 -73 1 -76 23 -76 33 0 57 30 57 71 0 43 -16 66 -52 75
l-28 6 0 -76z"/>
</g>
</svg>
